<svg width="17" height="14" viewBox="0 0 17 14" fill="none" xmlns="http://www.w3.org/2000/svg">
<path d="M16.3576 7.18555C16.3576 7.55828 16.0824 7.8662 15.7272 7.91136L15.6368 7.91707L1.2208 7.91707C0.928635 7.91707 0.666264 7.73858 0.554781 7.4645C0.51826 7.37477 0.5 7.28016 0.5 7.18555C0.5 7.02705 0.550723 6.86991 0.648276 6.74121L0.712395 6.66763L6.52684 0.79107C6.80843 0.506264 7.26494 0.507237 7.54557 0.793019C7.80282 1.05588 7.82425 1.46708 7.6084 1.75317L7.54365 1.82788L2.96609 6.45402L15.6368 6.45402C16.0347 6.45402 16.3576 6.78174 16.3576 7.18555ZM7.54375 12.5429C7.8263 12.8277 7.8263 13.291 7.54567 13.5778C7.28842 13.8397 6.88339 13.8624 6.60004 13.645L6.52598 13.5797L3.31986 10.3386C3.17762 10.1952 3.10747 10.008 3.10747 9.81971C3.10747 9.63341 3.17762 9.44712 3.31794 9.30374C3.57519 9.04088 3.97941 9.01815 4.26263 9.23632L4.33667 9.30179L7.54375 12.5429Z" fill="#141414"/>
</svg>
