<svg width="15" height="20" viewBox="0 0 15 20" fill="none" xmlns="http://www.w3.org/2000/svg">
<path id="Dollar" d="M1.82115 12.8827H10.3228C10.5278 12.8827 10.7244 12.8012 10.8693 12.6563C11.0143 12.5114 11.0957 12.3148 11.0957 12.1098C11.0957 11.9048 11.0143 11.7082 10.8693 11.5633C10.7244 11.4183 10.5278 11.3369 10.3228 11.3369H4.13979C3.11489 11.3369 2.13196 10.9298 1.40725 10.2051C0.682531 9.48034 0.275391 8.49742 0.275391 7.47252C0.275391 6.44761 0.682531 5.46469 1.40725 4.73997C2.13196 4.01526 3.11489 3.60812 4.13979 3.60812H5.68555V0.516602H8.77706V3.60812H12.6415V6.69964H4.13979C3.93481 6.69964 3.73822 6.78106 3.59328 6.92601C3.44834 7.07095 3.36691 7.26754 3.36691 7.47252C3.36691 7.6775 3.44834 7.87408 3.59328 8.01903C3.73822 8.16397 3.93481 8.2454 4.13979 8.2454H10.3228C11.3477 8.2454 12.3306 8.65254 13.0554 9.37725C13.7801 10.102 14.1872 11.0849 14.1872 12.1098C14.1872 13.1347 13.7801 14.1176 13.0554 14.8423C12.3306 15.567 11.3477 15.9742 10.3228 15.9742H8.77706V19.0657H5.68555V15.9742H1.82115V12.8827Z" fill="white"/>
</svg>
