<svg width="18" height="18" viewBox="0 0 18 18" fill="none" xmlns="http://www.w3.org/2000/svg">
<path d="M9.22962 0C13.9699 0 17.8264 3.85567 17.8264 8.59681C17.8264 13.3371 13.9699 17.1936 9.22962 17.1936C6.5414 17.1936 4.05692 15.9703 2.41493 13.8391C2.20431 13.5649 2.25503 13.172 2.52927 12.9623C2.80179 12.7508 3.1938 12.8032 3.40528 13.0757C4.80914 14.8983 6.93169 15.9436 9.22962 15.9436C13.2804 15.9436 16.5764 12.6485 16.5764 8.59681C16.5764 4.54599 13.2804 1.24998 9.22962 1.24998C5.1788 1.24998 1.88279 4.54599 1.88279 8.59681C1.88279 8.97335 1.91116 9.34731 1.96704 9.71353C2.01862 10.054 1.78478 10.3729 1.44349 10.4253C1.10048 10.4821 0.783257 10.244 0.731676 9.90266C0.66634 9.47454 0.632812 9.03524 0.632812 8.59681C0.632812 3.85567 4.48934 0 9.22962 0ZM9.23839 11.2153C9.5943 11.2153 9.88315 11.5042 9.88315 11.8601C9.88315 12.216 9.5943 12.5048 9.23839 12.5048C8.88248 12.5048 8.58933 12.216 8.58933 11.8601C8.58933 11.5042 8.87388 11.2153 9.22979 11.2153H9.23839ZM9.22962 4.68878C9.58553 4.68878 9.87438 4.97764 9.87438 5.33354V9.13333C9.87438 9.48924 9.58553 9.77809 9.22962 9.77809C8.87371 9.77809 8.58486 9.48924 8.58486 9.13333V5.33354C8.58486 4.97764 8.87371 4.68878 9.22962 4.68878Z" fill="#141414"/>
</svg>
