<svg width="17" height="21" viewBox="0 0 17 21" fill="none" xmlns="http://www.w3.org/2000/svg">
<g id="Icon" opacity="0.3">
<g id="Profile">
<path id="Vector" d="M16.831 16.9256C16.831 20.281 12.1733 20.6696 8.66942 20.6696C8.31626 20.6696 7.96824 20.6645 7.62638 20.6543C7.21984 20.6441 6.89953 20.3065 6.91185 19.9015C6.92314 19.4975 7.27425 19.1934 7.66847 19.1904C7.99698 19.1996 8.33064 19.2037 8.66942 19.2037C13.1065 19.2037 15.3568 18.4375 15.3568 16.9256C15.3568 15.3994 13.1065 14.6251 8.66942 14.6251C4.23238 14.6251 1.98203 15.3923 1.98203 16.9052C1.98203 17.4 2.15861 18.1172 3.69135 18.6334C4.07736 18.7629 4.28371 19.1781 4.15333 19.5607C4.02192 19.9433 3.60512 20.1524 3.21808 20.0198C0.978003 19.2659 0.507812 17.9101 0.507812 16.9052C0.507812 13.6173 4.9774 13.1772 8.45351 13.1606L9.05796 13.1609C11.3761 13.1727 16.831 13.3774 16.831 16.9256ZM8.66942 0.265625C11.7 0.265625 14.1649 2.71609 14.1649 5.72764C14.1649 8.73818 11.7 11.1886 8.66942 11.1886C5.63885 11.1886 3.17291 8.73818 3.17291 5.72764C3.17291 2.71609 5.63885 0.265625 8.66942 0.265625ZM8.66942 1.73162C6.45193 1.73162 4.64816 3.52407 4.64816 5.72764C4.64816 7.9302 6.45193 9.72265 8.66942 9.72265C10.8869 9.72265 12.6907 7.9302 12.6907 5.72764C12.6907 3.52407 10.8869 1.73162 8.66942 1.73162Z" fill="#808080"/>
</g>
</g>
</svg>
