<svg width="23" height="19" viewBox="0 0 23 19" fill="none" xmlns="http://www.w3.org/2000/svg">
<g id="Icon">
<g id="Scan">
<path id="Vector" d="M22.2044 9.54347C22.6435 9.54347 23 9.89644 23 10.3322C23 10.7669 22.6435 11.1199 22.2044 11.1199H21.0941V14.8762C21.0941 17.1513 19.2259 19 16.9301 19H15.2647C14.8256 19 14.4691 18.647 14.4691 18.2113C14.4691 17.7765 14.8256 17.4236 15.2647 17.4236H16.9301C18.3488 17.4236 19.503 16.2819 19.503 14.8762V11.1199H3.49809V14.8793C3.49809 16.2808 4.64914 17.4205 6.06364 17.4225L7.76564 17.4236C8.20473 17.4236 8.56123 17.7765 8.56123 18.2113C8.56018 18.647 8.20473 19 7.76459 19L6.06259 18.999C3.77095 18.9969 1.90586 17.1493 1.90586 14.8793V11.1199H0.795591C0.357545 11.1199 0 10.7669 0 10.3322C0 9.89644 0.357545 9.54347 0.795591 9.54347H22.2044ZM13.4436 13.4836C13.8827 13.4836 14.2392 13.8366 14.2392 14.2713C14.2392 14.7071 13.8827 15.059 13.4436 15.059H9.55765C9.11751 15.059 8.76101 14.7071 8.76101 14.2713C8.76101 13.8366 9.11751 13.4836 9.55765 13.4836H13.4436ZM7.76532 0C8.20441 0 8.56091 0.352964 8.56091 0.788734C8.56091 1.22347 8.20546 1.57643 7.76532 1.57643L6.06332 1.57747C4.64882 1.57954 3.49882 2.71917 3.49882 4.11963V6.08215C3.49882 6.51689 3.14128 6.87089 2.70219 6.87089C2.2631 6.87089 1.9066 6.51689 1.9066 6.08215V4.11963C1.9066 1.85073 3.77064 0.00310525 6.06123 0.00103508L7.76532 0ZM13.4433 5.29445C13.8834 5.29445 14.2399 5.64742 14.2399 6.08215C14.2399 6.51689 13.8834 6.87089 13.4433 6.87089H9.55734C9.11825 6.87089 8.76175 6.51689 8.76175 6.08215C8.76175 5.64742 9.11825 5.29445 9.55734 5.29445H13.4433ZM16.9299 0.000724559C19.2267 0.000724559 21.0939 1.84938 21.0939 4.12346V6.08288C21.0939 6.51658 20.7374 6.87058 20.2983 6.87058C19.8592 6.87058 19.5027 6.51658 19.5027 6.08288V4.12346C19.5027 2.71885 18.3486 1.57612 16.9299 1.57612H15.2645C14.8254 1.57612 14.4689 1.22316 14.4689 0.788423C14.4689 0.352653 14.8254 0.000724559 15.2645 0.000724559H16.9299Z" fill="#C0C0C0"/>
</g>
</g>
</svg>
