<svg width="21" height="21" viewBox="0 0 21 21" fill="none" xmlns="http://www.w3.org/2000/svg">
<g id="Icon">
<g id="Swap">
<path id="Vector" d="M16.3332 3.50335C16.831 3.50335 17.2329 3.91104 17.2329 4.41338V17.081L19.4628 14.8132C19.8131 14.4577 20.3829 14.4565 20.7356 14.8108C21.087 15.1651 21.0882 15.7415 20.738 16.0982L16.9702 19.9264C16.7986 20.1023 16.5683 20.1945 16.3332 20.1945C16.2169 20.1945 16.1005 20.1715 15.9901 20.1254C15.6531 19.9846 15.4336 19.6534 15.4336 19.2845V4.41338C15.4336 3.91104 15.8366 3.50335 16.3332 3.50335ZM12.569 14.1692L14.3204 15.9492C14.6706 16.3059 14.6694 16.8811 14.3168 17.2354C14.1416 17.4125 13.9113 17.5011 13.6822 17.5011C13.4519 17.5011 13.2204 17.4125 13.0441 17.2329L11.2927 15.4541C10.9424 15.0974 10.9436 14.521 11.2963 14.1667C11.6478 13.8124 12.2164 13.8124 12.569 14.1692ZM6.25209 0.80917L10.6544 5.28046C11.0059 5.63719 11.0047 6.21354 10.652 6.56785C10.2994 6.92215 9.73078 6.92216 9.38051 6.56542L6.51479 3.65575V16.321C6.51479 16.8233 6.11175 17.231 5.61513 17.231C5.11852 17.231 4.71547 16.8233 4.71547 16.321V1.45105C4.71547 1.08218 4.93499 0.750928 5.27206 0.610176C5.60674 0.470638 5.99539 0.547081 6.25209 0.80917ZM3.59941 3.49874C3.95088 3.85304 3.95208 4.4294 3.60181 4.78613L1.84927 6.56494C1.67414 6.74452 1.44263 6.83309 1.21231 6.83309C0.983199 6.83309 0.752886 6.74452 0.577752 6.56736C0.225085 6.21306 0.223885 5.63792 0.575353 5.28119L2.32669 3.50116C2.67816 3.14443 3.24675 3.14443 3.59941 3.49874Z" fill="white"/>
</g>
</g>
</svg>
