<svg width="20" height="21" viewBox="0 0 20 21" fill="none" xmlns="http://www.w3.org/2000/svg">
<g id="Icon">
<g id="Home">
<path id="Vector" d="M2.39732 5.35761C2.71705 5.25907 3.0703 5.3721 3.27187 5.64927C3.49585 5.95723 3.46935 6.3809 3.20875 6.65855L2.49493 7.18731C2.1567 7.46831 1.95994 7.88442 1.95736 8.32413V16.3877C1.96701 17.7012 3.03202 18.7623 4.34557 18.7671H8.39936V18.7847C8.8374 18.7847 9.1925 19.1398 9.1925 19.5778C9.1925 20.0159 8.8374 20.3709 8.39936 20.3709H4.34557C2.15254 20.3661 0.37594 18.5895 0.371094 16.3965V8.32413C0.385115 7.39133 0.822965 6.51563 1.56079 5.94473L2.29224 5.39835L2.39732 5.35761ZM7.58861 1.07137C8.92677 -0.00425935 10.833 -0.00425935 12.1712 1.07137L18.2607 5.92711C18.9822 6.50746 19.4058 7.38056 19.4151 8.30651L19.4063 16.3877C19.4063 18.5827 17.6269 20.3621 15.4318 20.3621H13.6693C12.6068 20.3621 11.7442 19.5034 11.7393 18.441V14.7926L11.7311 14.7007C11.6878 14.4623 11.4791 14.2814 11.2282 14.2814H8.58443C8.44733 14.2814 8.31597 14.3365 8.21985 14.4343C8.12374 14.532 8.07093 14.6643 8.0733 14.8014V16.1938C8.0733 16.6318 7.7182 16.9869 7.28017 16.9869C6.84213 16.9869 6.48703 16.6318 6.48703 16.1938V14.8014C6.48703 14.2428 6.70894 13.7071 7.10393 13.3121C7.49892 12.9171 8.03464 12.6952 8.59324 12.6952H11.237C12.3968 12.7 13.3344 13.6416 13.3344 14.8014V18.441C13.3344 18.6259 13.4843 18.7759 13.6693 18.7759H15.4759C16.79 18.7759 17.8553 17.7106 17.8553 16.3965V8.32413C17.8488 7.87694 17.6418 7.45632 17.2913 7.1785L11.2018 2.32276C10.4339 1.69058 9.32587 1.69058 8.55799 2.32276L6.6016 3.78565C6.239 4.04604 5.73397 3.96318 5.47358 3.60059C5.2132 3.23799 5.29605 2.73296 5.65865 2.47257L7.58861 1.07137Z" fill="#808080"/>
</g>
</g>
</svg>
