<svg width="20" height="22" viewBox="0 0 20 22" fill="none" xmlns="http://www.w3.org/2000/svg">
<g id="Icon">
<g id="Document">
<path id="Vector" d="M14.0008 0.821289C17.4087 0.821289 19.4498 2.83225 19.459 6.18993V16.0628C19.459 19.4204 17.4272 21.4314 14.0101 21.4314H10.9808C10.5923 21.3892 10.2983 21.0658 10.2983 20.6807C10.2983 20.2956 10.5923 19.9722 10.9808 19.93H14.0008C16.6053 19.93 17.9167 18.6288 17.9167 16.0628V6.18993C17.9167 3.6239 16.6053 2.32269 14.0008 2.32269H5.81812C3.21369 2.32269 1.89301 3.6239 1.89301 6.18993V16.0628C1.89301 18.6288 3.21369 19.93 5.81812 19.93C6.20661 19.9722 6.50066 20.2956 6.50066 20.6807C6.50066 21.0658 6.20661 21.3892 5.81812 21.4314C2.4102 21.4314 0.369141 19.4204 0.369141 16.0628V6.18993C0.369141 2.82316 2.4102 0.821289 5.81812 0.821289H14.0008ZM13.7238 14.7434C14.142 14.7434 14.4811 15.0774 14.4811 15.4895C14.4811 15.9016 14.142 16.2357 13.7238 16.2357H6.07672C5.65846 16.2357 5.3194 15.9016 5.3194 15.4895C5.3194 15.0774 5.65846 14.7434 6.07672 14.7434H13.7238ZM13.7238 10.3757C14.016 10.3439 14.3009 10.4796 14.4572 10.725C14.6134 10.9704 14.6134 11.2823 14.4572 11.5277C14.3009 11.7731 14.016 11.9088 13.7238 11.8771H6.07672C5.68823 11.8348 5.39418 11.5114 5.39418 11.1264C5.39418 10.7413 5.68823 10.4179 6.07672 10.3757H13.7238ZM8.99515 6.01704C9.38364 6.05925 9.67769 6.38266 9.67769 6.76774C9.67769 7.15282 9.38364 7.47624 8.99515 7.51844H6.08595C5.69746 7.47624 5.40341 7.15282 5.40341 6.76774C5.40341 6.38266 5.69746 6.05925 6.08595 6.01704H8.99515Z" fill="white"/>
</g>
</g>
</svg>
