<svg width="30" height="29" viewBox="0 0 30 29" fill="none" xmlns="http://www.w3.org/2000/svg">
<g id="Icon">
<g id="Wallet">
<path id="Vector" d="M21.3213 0C26.1067 0 30 4.05203 30 9.03413V19.9659C30 24.948 26.1067 29 21.3213 29C20.7693 29 20.3213 28.5336 20.3213 27.9589C20.3213 27.3842 20.7693 26.9178 21.3213 26.9178C25.004 26.9178 28 23.8 28 19.9659V11.2413H23.0747C21.4573 11.2427 20.1387 12.6142 20.1373 14.2994C20.1387 15.9846 21.4573 17.3561 23.0747 17.3575H25.1213C25.6733 17.3575 26.1213 17.8239 26.1213 18.3986C26.1213 18.9733 25.6733 19.4398 25.1213 19.4398H23.0747C20.3533 19.4384 18.1387 17.1326 18.1373 14.2994C18.1387 11.4662 20.3533 9.16045 23.0747 9.15906H28V9.03413C28 5.20004 25.004 2.08224 21.3213 2.08224H8.67733C5.70933 2.08224 3.21867 4.12005 2.35067 6.91164H15.532C16.084 6.91164 16.532 7.37806 16.532 7.95275C16.532 8.52884 16.084 8.99387 15.532 8.99387H2.004L2 9.03413V19.9659C2 23.8 4.99467 26.9178 8.67733 26.9178H15.0387C15.5907 26.9178 16.0387 27.3842 16.0387 27.9589C16.0387 28.5336 15.5907 29 15.0387 29H8.67733C3.892 29 0 24.948 0 19.9659V9.03413C0 4.05203 3.892 0 8.67733 0H21.3213ZM23.7461 13.1645C24.2981 13.1645 24.7461 13.6309 24.7461 14.2056C24.7461 14.7803 24.2981 15.2467 23.7461 15.2467H23.2915C22.7395 15.2467 22.2915 14.7803 22.2915 14.2056C22.2915 13.6309 22.7395 13.1645 23.2915 13.1645H23.7461Z" fill="#6C69FF"/>
</g>
</g>
</svg>
