
<svg width="21" height="21" viewBox="0 0 21 21" fill="none" xmlns="http://www.w3.org/2000/svg">
<g id="Icon" opacity="0.3">
<g id="Chart">
<path id="Vector" d="M14.0342 0.265625C17.9553 0.265625 20.4138 2.70621 20.4138 6.64525V9.01405L20.4067 9.11998C20.355 9.501 20.0284 9.79468 19.6332 9.79468H19.6242L19.5009 9.78481C19.3389 9.75864 19.1883 9.68125 19.0721 9.56236C18.9269 9.41374 18.8477 9.21282 18.8525 9.00508V6.64525C18.8525 3.54068 17.1387 1.82688 14.0342 1.82688H6.38939C3.27584 1.82688 1.57102 3.54068 1.57102 6.64525V14.299C1.57102 17.4036 3.28482 19.1084 6.38939 19.1084H14.0342C17.1477 19.1084 18.8525 17.3946 18.8525 14.299C18.8525 13.8679 19.202 13.5184 19.6332 13.5184C20.0643 13.5184 20.4138 13.8679 20.4138 14.299C20.4138 18.2291 17.9732 20.6696 14.0431 20.6696H6.38939C2.45035 20.6696 0.00976562 18.2291 0.00976562 14.299V6.64525C0.00976562 2.70621 2.45035 0.265625 6.38939 0.265625H14.0342ZM5.87794 7.97321C6.08502 7.98023 6.28081 8.06928 6.42218 8.22076C6.56356 8.37223 6.63891 8.57369 6.63165 8.78076V15.3039C6.61678 15.7351 6.25523 16.0725 5.8241 16.0577C5.39297 16.0428 5.05553 15.6812 5.07039 15.2501V8.71795L5.0843 8.59587C5.1156 8.43586 5.19707 8.28872 5.31847 8.17676C5.47023 8.0368 5.67173 7.96349 5.87794 7.97321ZM10.2477 4.91351C10.6788 4.91351 11.0283 5.26301 11.0283 5.69413V15.2591C11.0283 15.6902 10.6788 16.0397 10.2477 16.0397C9.81654 16.0397 9.46704 15.6902 9.46704 15.2591V5.69413C9.46704 5.26301 9.81654 4.91351 10.2477 4.91351ZM14.5725 11.4187C15.0037 11.4187 15.3532 11.7682 15.3532 12.1994V15.2501C15.3532 15.6812 15.0037 16.0307 14.5725 16.0307C14.1414 16.0307 13.7919 15.6812 13.7919 15.2501V12.1994C13.7919 11.7682 14.1414 11.4187 14.5725 11.4187Z" fill="#808080"/>
</g>
</g>
</svg>
