<svg width="23" height="21" viewBox="0 0 23 21" fill="none" xmlns="http://www.w3.org/2000/svg">
<g id="Icon" opacity="0.3">
<g id="Wallet">
<path id="Vector" d="M15.7939 0.264648C19.2199 0.264648 22.0072 3.1156 22.0072 6.62094V14.3124C22.0072 17.8177 19.2199 20.6687 15.7939 20.6687C15.3987 20.6687 15.078 20.3405 15.078 19.9361C15.078 19.5318 15.3987 19.2036 15.7939 19.2036C18.4304 19.2036 20.5753 17.01 20.5753 14.3124V8.17388H17.0492C15.8913 8.17486 14.9472 9.13982 14.9462 10.3255C14.9472 11.5112 15.8913 12.4762 17.0492 12.4772H18.5144C18.9096 12.4772 19.2304 12.8053 19.2304 13.2097C19.2304 13.614 18.9096 13.9422 18.5144 13.9422H17.0492C15.1009 13.9412 13.5153 12.3189 13.5144 10.3255C13.5153 8.3321 15.1009 6.70982 17.0492 6.70885H20.5753V6.62094C20.5753 3.92333 18.4304 1.72968 15.7939 1.72968H6.74166C4.61678 1.72968 2.83364 3.16346 2.21221 5.12758H11.6491C12.0443 5.12758 12.3651 5.45575 12.3651 5.8601C12.3651 6.26543 12.0443 6.59262 11.6491 6.59262H1.96402L1.96116 6.62094V14.3124C1.96116 17.01 4.10513 19.2036 6.74166 19.2036H11.2959C11.6911 19.2036 12.0119 19.5318 12.0119 19.9361C12.0119 20.3405 11.6911 20.6687 11.2959 20.6687H6.74166C3.3157 20.6687 0.529297 17.8177 0.529297 14.3124V6.62094C0.529297 3.1156 3.3157 0.264648 6.74166 0.264648H15.7939ZM17.5299 9.52698C17.9251 9.52698 18.2458 9.85515 18.2458 10.2595C18.2458 10.6639 17.9251 10.992 17.5299 10.992H17.2044C16.8092 10.992 16.4884 10.6639 16.4884 10.2595C16.4884 9.85515 16.8092 9.52698 17.2044 9.52698H17.5299Z" fill="#808080"/>
</g>
</g>
</svg>
