
<svg width="34" height="28" viewBox="0 0 34 28" fill="none" xmlns="http://www.w3.org/2000/svg">
<g id="Icon">
<g id="Scan">
<path id="Vector" d="M32.5831 14.1276C33.2205 14.1276 33.738 14.6351 33.738 15.2617C33.738 15.8867 33.2205 16.3942 32.5831 16.3942H30.9713V21.795C30.9713 25.0661 28.2593 27.724 24.9265 27.724H22.5089C21.8715 27.724 21.3539 27.2165 21.3539 26.59C21.3539 25.9649 21.8715 25.4575 22.5089 25.4575H24.9265C26.986 25.4575 28.6615 23.816 28.6615 21.795V16.3942H5.42768V21.7994C5.42768 23.8145 7.09862 25.453 9.152 25.456L11.6227 25.4575C12.2602 25.4575 12.7777 25.9649 12.7777 26.59C12.7762 27.2165 12.2602 27.724 11.6212 27.724L9.15049 27.7225C5.82379 27.7196 3.11629 25.0631 3.11629 21.7994V16.3942H1.50454C0.868647 16.3942 0.349609 15.8867 0.349609 15.2617C0.349609 14.6351 0.868647 14.1276 1.50454 14.1276H32.5831ZM19.8653 19.7927C20.5027 19.7927 21.0202 20.3002 21.0202 20.9252C21.0202 21.5518 20.5027 22.0578 19.8653 22.0578H14.2242C13.5852 22.0578 13.0677 21.5518 13.0677 20.9252C13.0677 20.3002 13.5852 19.7927 14.2242 19.7927H19.8653ZM11.6223 0.40625C12.2597 0.40625 12.7772 0.913733 12.7772 1.54027C12.7772 2.16533 12.2612 2.67281 11.6223 2.67281L9.15155 2.6743C7.09816 2.67727 5.42874 4.3158 5.42874 6.32937V9.15103C5.42874 9.77609 4.90971 10.2851 4.27229 10.2851C3.63488 10.2851 3.11736 9.77609 3.11736 9.15103V6.32937C3.11736 3.06719 5.82333 0.410715 9.14851 0.407738L11.6223 0.40625ZM19.8648 8.0185C20.5038 8.0185 21.0213 8.52598 21.0213 9.15103C21.0213 9.77609 20.5038 10.2851 19.8648 10.2851H14.2237C13.5863 10.2851 13.0688 9.77609 13.0688 9.15103C13.0688 8.52598 13.5863 8.0185 14.2237 8.0185H19.8648ZM24.9262 0.407292C28.2605 0.407292 30.971 3.06525 30.971 6.33487V9.15207C30.971 9.77564 30.4535 10.2846 29.8161 10.2846C29.1787 10.2846 28.6611 9.77564 28.6611 9.15207V6.33487C28.6611 4.31536 26.9857 2.67236 24.9262 2.67236H22.5086C21.8712 2.67236 21.3536 2.16488 21.3536 1.53983C21.3536 0.913287 21.8712 0.407292 22.5086 0.407292H24.9262Z" fill="#6C69FF"/>
</g>
</g>
</svg>
