<svg width="8" height="13" viewBox="0 0 8 13" fill="none" xmlns="http://www.w3.org/2000/svg">
<g id="Icon">
<g id="Arrow---Right-2">
<path id="Vector" d="M0.886946 12.0187C0.672316 11.8061 0.653078 11.4724 0.83419 11.2396L0.888555 11.1788L6.17323 6.00196C6.40978 5.77003 6.79197 5.77082 7.02692 6.00354C7.14358 6.11911 7.20312 6.27109 7.20312 6.42228C7.20312 6.54959 7.16178 6.67635 7.07955 6.78195L7.02531 6.84261L1.74064 12.0195C1.50408 12.2514 1.12189 12.2506 0.886946 12.0187ZM0.888635 1.66636C0.651276 1.43443 0.652885 1.05843 0.887026 0.826504C1.10239 0.613176 1.44149 0.594733 1.67871 0.771177L1.74072 0.82413L5.25042 4.26192C5.3687 4.37749 5.42824 4.53027 5.42824 4.68225C5.42824 4.83344 5.3687 4.98542 5.25203 5.10099C5.03666 5.31432 4.69757 5.33276 4.46034 5.15632L4.39834 5.10336L0.888635 1.66636Z" fill="#6C69FF"/>
</g>
</g>
</svg>
