<svg width="20" height="21" viewBox="0 0 20 21" fill="none" xmlns="http://www.w3.org/2000/svg">
<g id="Icon">
<g id="Send">
<path id="Vector" d="M13.5239 6.11009C13.8092 5.82292 14.2708 5.82292 14.5562 6.11009C14.8415 6.39726 14.8415 6.8628 14.5562 7.14997L9.29343 12.4474L12.9883 18.5652C13.1227 18.7877 13.334 18.7857 13.4216 18.7759C13.5073 18.7642 13.7148 18.7112 13.7888 18.4623L16.0501 10.8518C16.1669 10.4617 16.573 10.2402 16.9597 10.3578C17.3463 10.4745 17.5664 10.8842 17.4505 11.2733L15.1892 18.8828C14.9701 19.6188 14.3643 20.1363 13.6076 20.2333C13.5229 20.2451 13.4392 20.25 13.3554 20.25C12.6951 20.25 12.0913 19.9109 11.7398 19.3287L7.74694 12.7169C7.57262 12.4268 7.61644 12.0544 7.85504 11.8153L13.5239 6.11009ZM17.4872 0.848708C18.1543 0.654649 18.8769 0.841848 19.3668 1.34072C19.8566 1.83861 20.0378 2.56487 19.8381 3.23721L18.6218 7.32913C18.5059 7.71824 18.1007 7.93876 17.7132 7.82311C17.3265 7.70647 17.1064 7.29679 17.2223 6.90867L18.4387 2.81577C18.5068 2.58643 18.3851 2.43157 18.3296 2.37571C18.2741 2.31886 18.1183 2.19537 17.8933 2.26103L2.2229 6.81752C1.97359 6.89005 1.91906 7.09881 1.90737 7.18506C1.89666 7.27131 1.89276 7.48693 2.1148 7.62415L5.4123 9.65295C5.75607 9.86466 5.86514 10.3175 5.65382 10.6644C5.5165 10.8898 5.27693 11.0153 5.03054 11.0153C4.90102 11.0153 4.76955 10.981 4.65074 10.9075L1.35324 8.87769C0.69978 8.47585 0.356981 7.75254 0.459236 6.98904C0.561492 6.22456 1.08251 5.61788 1.81777 5.40422L17.4872 0.848708Z" fill="white"/>
</g>
</g>
</svg>
