<svg width="7" height="13" viewBox="0 0 7 13" fill="none" xmlns="http://www.w3.org/2000/svg">
<g id="Icon">
<g id="Arrow---Right-2">
<path id="Vector" d="M0.189775 12.7838C-0.0416421 12.5546 -0.0623849 12.1948 0.132893 11.9438L0.19151 11.8783L5.88954 6.29645C6.1446 6.04638 6.55668 6.04723 6.81001 6.29816C6.9358 6.42277 7 6.58664 7 6.74965C7 6.88692 6.95542 7.0236 6.86676 7.13746L6.80827 7.20285L1.11024 12.7847C0.855182 13.0347 0.443098 13.0339 0.189775 12.7838ZM0.191597 1.62173C-0.0643284 1.37166 -0.0625933 0.966252 0.189862 0.71618C0.422075 0.486165 0.787691 0.46628 1.04347 0.656525L1.11033 0.71362L4.89456 4.42032C5.02209 4.54492 5.08628 4.70965 5.08628 4.87352C5.08628 5.03653 5.02209 5.2004 4.89629 5.32501C4.66408 5.55503 4.29846 5.57491 4.04268 5.38467L3.97583 5.32757L0.191597 1.62173Z" fill="#FF8C00"/>
</g>
</g>
</svg>
