<svg width="24" height="24" viewBox="0 0 24 24" fill="none" xmlns="http://www.w3.org/2000/svg">
<g id="Icon">
<g id="Discount">
<path id="Vector" d="M3.48714 17.1246C3.9575 17.1246 4.33924 17.5065 4.33924 17.977C4.33924 18.9237 5.10841 19.6931 6.05594 19.6931H7.22388C8.13393 19.6942 8.99057 20.0488 9.63476 20.6887L10.4539 21.5092C10.7857 21.84 11.2163 22.0172 11.673 22.0172C12.1388 22.0354 12.566 21.8388 12.8909 21.5104C13.2227 21.1785 13.7623 21.1751 14.0964 21.507C14.4292 21.84 14.4304 22.3798 14.0986 22.7139C13.4317 23.3845 12.5523 23.7197 11.673 23.7197C10.8004 23.7197 9.92674 23.389 9.26097 22.7264L8.43159 21.8968C8.11007 21.5774 7.67947 21.399 7.22161 21.3979H6.05594C4.16996 21.3979 2.63504 19.8636 2.63504 17.977C2.63504 17.5065 3.01678 17.1246 3.48714 17.1246ZM17.2906 3.31551C19.1766 3.31551 20.7115 4.84979 20.7115 6.73752V7.90585C20.7126 8.36159 20.8899 8.79232 21.2114 9.11623L22.0271 9.93224C22.6736 10.5744 23.0315 11.4324 23.0349 12.3473C23.0371 13.2622 22.6838 14.1225 22.0396 14.7703L21.2102 15.6C20.8944 15.9182 20.7126 16.358 20.7115 16.8092V17.9764C20.7115 19.863 19.1766 21.3984 17.2906 21.3984C16.8202 21.3984 16.4385 21.0166 16.4385 20.546C16.4385 20.0755 16.8202 19.6937 17.2906 19.6937C18.2381 19.6937 19.0073 18.9231 19.0073 17.9764V16.8081C19.0084 15.8966 19.3618 15.0397 20.0037 14.3964L20.8217 13.577C21.1546 13.2429 21.3318 12.811 21.3307 12.3519C21.3295 11.8938 21.1489 11.4631 20.824 11.1392L20.0048 10.3198C19.3618 9.67198 19.0084 8.81619 19.0073 7.90699V6.73752C19.0073 5.78968 18.2381 5.02027 17.2906 5.02027C16.8202 5.02027 16.4385 4.6384 16.4385 4.16789C16.4385 3.69738 16.8202 3.31551 17.2906 3.31551ZM14.5932 14.2941C15.1374 14.2941 15.5793 14.7362 15.5793 15.2806C15.5793 15.825 15.1374 16.2671 14.5932 16.2671C14.0478 16.2671 13.607 15.825 13.607 15.2806C13.607 14.7362 14.0478 14.2941 14.5932 14.2941ZM13.9909 8.83301C14.3238 8.50001 14.8623 8.50001 15.1952 8.83301C15.5281 9.16601 15.5281 9.70584 15.1952 10.0388L9.35663 15.8805C9.18962 16.0464 8.97148 16.1294 8.75335 16.1294C8.53521 16.1294 8.31707 16.0464 8.1512 15.8805C7.81831 15.5475 7.81831 15.0076 8.1512 14.6746L13.9909 8.83301ZM9.24961 1.99944C10.5334 0.714057 12.6126 0.657232 13.9532 1.87329C13.9986 1.90739 14.0441 1.94148 14.0895 1.98694C14.2372 2.14605 14.3281 2.35062 14.3281 2.57792C14.3281 3.05525 13.9418 3.4303 13.476 3.4303C13.2488 3.4303 13.0443 3.33938 12.8966 3.203C12.8852 3.19163 12.8852 3.19163 12.8739 3.18141C12.1922 2.53246 11.1129 2.54383 10.4539 3.203L9.63589 4.02128C8.9883 4.66909 8.1362 5.0214 7.22729 5.0214H6.05708C5.11409 5.0214 4.34152 5.79423 4.34152 6.73752V7.90812C4.34152 8.81846 3.98931 9.67084 3.34172 10.3175L2.5237 11.1369C1.85338 11.8177 1.85338 12.9087 2.5237 13.5793C2.85318 13.9089 2.85318 14.443 2.5237 14.7851C2.36464 14.9431 2.13742 15.034 1.92155 15.034C1.70569 15.034 1.48982 14.9544 1.3194 14.7851C-0.0212345 13.4554 -0.0212345 11.2835 1.30804 9.94246L2.13742 9.11282C2.45554 8.7946 2.63732 8.36272 2.63732 7.90812V6.73752C2.63732 4.85093 4.1711 3.31665 6.05708 3.31665H7.22729C7.68175 3.31665 8.11348 3.13595 8.43159 2.81659L9.24961 1.99944ZM8.74324 8.4674C9.28744 8.4674 9.7294 8.9095 9.7294 9.45388C9.7294 9.99827 9.28744 10.4392 8.74324 10.4392C8.19903 10.4392 7.75707 9.99827 7.75707 9.45388C7.75707 8.9095 8.19903 8.4674 8.74324 8.4674Z" fill="white"/>
</g>
</g>
</svg>
