<svg width="44" height="15" viewBox="0 0 44 15" fill="none" xmlns="http://www.w3.org/2000/svg">
<g id="Logo 1">
<path id="Vector" d="M40.6643 14.6662L40.2556 12.6229H35.6895L34.963 14.6517L31.3033 14.6589C33.0456 10.4691 34.7916 6.28075 36.5414 2.094C36.8392 1.38384 37.3678 1.0224 38.147 1.02604C38.7427 1.03149 39.7144 1.03148 41.0639 1.02785L43.8936 14.6608L40.6643 14.6662ZM36.7176 9.82403H39.6599L38.5611 4.70216L36.7176 9.82403ZM13.1261 1.02422L16.8058 1.02785L11.1173 14.668L7.39211 14.6644C6.45537 11.0615 5.53028 7.45557 4.61686 3.8467C4.43523 3.12746 4.07561 2.62435 3.38361 2.38642C2.7679 2.17392 1.74171 1.84699 0.303223 1.402V1.02967H6.18248C7.19959 1.02967 7.79351 1.52188 7.98421 2.53172C8.17674 3.54338 8.65987 6.11885 9.43723 10.2581L13.1261 1.02422ZM21.8623 1.02785L18.9526 14.6644L15.4509 14.6608L18.3569 1.02422L21.8623 1.02785ZM28.9639 0.775391C30.0119 0.775391 31.3323 1.10232 32.0915 1.402L31.4776 4.22993C30.7911 3.95386 29.6614 3.58152 28.7114 3.59424C27.3311 3.61785 26.4774 4.19724 26.4774 4.75302C26.4774 5.65752 27.9595 6.1134 29.4852 7.10145C31.227 8.22753 31.4558 9.23919 31.434 10.338C31.4104 12.6193 29.4852 14.8696 25.424 14.8696C23.5714 14.8424 22.903 14.6862 21.3919 14.1504L22.0312 11.1989C23.5696 11.8437 24.2216 12.049 25.5366 12.049C26.7408 12.049 27.7743 11.5622 27.7833 10.714C27.7906 10.111 27.4201 9.81132 26.0688 9.06665C24.7175 8.32016 22.8213 7.28671 22.8467 5.21253C22.8776 2.55715 25.3931 0.775391 28.9657 0.775391H28.9639Z" fill="white"/>
</g>
</svg>
