<svg width="19" height="24" viewBox="0 0 19 24" fill="none" xmlns="http://www.w3.org/2000/svg">
<g id="Notify">
<g id="Icon">
<g id="Notification">
<path id="Vector" d="M10.6377 20.789C10.9143 20.5421 11.3388 20.5268 11.6341 20.7691C11.959 21.0355 12.0045 21.5128 11.7358 21.835C11.0735 22.694 10.0487 23.2021 8.95835 23.2123L8.74187 23.2031C7.73658 23.1302 6.80614 22.6345 6.1897 21.835L6.12418 21.7435C5.9316 21.4277 5.99609 21.0113 6.29142 20.7691C6.61629 20.5026 7.09747 20.5478 7.36615 20.87C7.48415 21.0264 7.62416 21.1652 7.78189 21.2823C8.20351 21.5936 8.73296 21.7251 9.25276 21.6477C9.77256 21.5703 10.2397 21.2903 10.5505 20.87H10.5594L10.6377 20.789ZM8.96719 3.27197C12.0277 3.27197 15.4598 5.43005 15.849 8.89526V10.7024C15.9819 11.3547 16.2872 11.9602 16.7336 12.457C16.76 12.487 16.7837 12.5193 16.8043 12.5535C17.2091 13.1627 17.4413 13.8687 17.4766 14.5975L17.4501 14.7817C17.4805 15.779 17.1477 16.7539 16.5124 17.5276C15.7012 18.4029 14.5922 18.9497 13.3988 19.0628C10.4593 19.3855 7.49281 19.3855 4.55328 19.0628C3.37735 18.942 2.28764 18.3954 1.49272 17.5276C0.847002 16.765 0.50416 15.7948 0.528562 14.7993V14.6764C0.577194 13.9259 0.82765 13.2019 1.2539 12.5798L1.32466 12.4921C1.76794 11.9932 2.07278 11.3885 2.20921 10.7375V8.93035L2.25813 8.8294C2.40684 8.57309 2.69648 8.42319 2.99983 8.45601C3.3411 8.49293 3.61514 8.75196 3.66872 9.08826V10.8954C3.67216 10.9275 3.67216 10.9599 3.66872 10.9919C3.48454 11.897 3.06357 12.738 2.44804 13.4307C2.211 13.8052 2.07682 14.2347 2.05884 14.6764V14.8694C2.0392 15.4908 2.24652 16.0983 2.64264 16.5801C3.19183 17.1427 3.92623 17.4913 4.7125 17.5627C7.55826 17.8697 10.4292 17.8697 13.275 17.5627C14.0827 17.4891 14.8351 17.1239 15.389 16.5363C15.7657 16.0658 15.963 15.4787 15.9463 14.8782V14.6764C15.9282 14.2332 15.7973 13.8016 15.566 13.422C14.9248 12.7371 14.4791 11.8954 14.2745 10.9832C14.2711 10.9511 14.2711 10.9187 14.2745 10.8867V9.07071C14.018 6.42136 11.3555 4.78087 9.03796 4.78087C8.05267 4.77863 7.08358 5.02948 6.22508 5.509L6.11993 5.5612C5.90377 5.64848 5.65646 5.63316 5.45091 5.51469C5.21111 5.37647 5.06616 5.11977 5.07264 4.84477C5.07912 4.56977 5.236 4.32006 5.48206 4.1931C6.54586 3.59707 7.74539 3.28003 8.96719 3.27197Z" fill="#141414"/>
</g>
</g>
<circle id="Ellipse 19" cx="16.4213" cy="1.88079" r="1.85491" fill="#FF8C00"/>
</g>
</svg>
