<svg width="55" height="55" viewBox="0 0 55 55" fill="none" xmlns="http://www.w3.org/2000/svg">
<g clip-path="url(#clip0_3_1855)">
<path d="M11.4807 34.7333C11.4807 37.8706 8.94508 40.4063 5.80775 40.4063C2.67042 40.4063 0.134766 37.8706 0.134766 34.7333C0.134766 31.596 2.67042 29.0603 5.80775 29.0603H11.4807V34.7333ZM14.3172 34.7333C14.3172 31.596 16.8529 29.0603 19.9902 29.0603C23.1275 29.0603 25.6632 31.596 25.6632 34.7333V48.9158C25.6632 52.0531 23.1275 54.5887 19.9902 54.5887C16.8529 54.5887 14.3172 52.0531 14.3172 48.9158V34.7333Z" fill="#E01E5A"/>
<path d="M19.9902 11.9553C16.8529 11.9553 14.3172 9.41969 14.3172 6.28236C14.3172 3.14503 16.8529 0.609375 19.9902 0.609375C23.1276 0.609375 25.6632 3.14503 25.6632 6.28236V11.9553H19.9902ZM19.9902 14.8348C23.1276 14.8348 25.6632 17.3705 25.6632 20.5078C25.6632 23.6451 23.1276 26.1808 19.9902 26.1808H5.76478C2.62745 26.1808 0.0917969 23.6451 0.0917969 20.5078C0.0917969 17.3705 2.62745 14.8348 5.76478 14.8348H19.9902Z" fill="#36C5F0"/>
<path d="M42.7249 20.5078C42.7249 17.3705 45.2606 14.8348 48.3979 14.8348C51.5353 14.8348 54.0709 17.3705 54.0709 20.5078C54.0709 23.6451 51.5353 26.1808 48.3979 26.1808H42.7249V20.5078ZM39.8885 20.5078C39.8885 23.6451 37.3528 26.1808 34.2155 26.1808C31.0781 26.1808 28.5425 23.6451 28.5425 20.5078V6.28236C28.5425 3.14503 31.0781 0.609375 34.2155 0.609375C37.3528 0.609375 39.8885 3.14503 39.8885 6.28236V20.5078Z" fill="#2EB67D"/>
<path d="M34.2155 43.2428C37.3528 43.2428 39.8885 45.7784 39.8885 48.9158C39.8885 52.0531 37.3528 54.5887 34.2155 54.5887C31.0781 54.5887 28.5425 52.0531 28.5425 48.9158V43.2428H34.2155ZM34.2155 40.4063C31.0781 40.4063 28.5425 37.8706 28.5425 34.7333C28.5425 31.596 31.0781 29.0603 34.2155 29.0603H48.4409C51.5782 29.0603 54.1139 31.596 54.1139 34.7333C54.1139 37.8706 51.5782 40.4063 48.4409 40.4063H34.2155Z" fill="#ECB22E"/>
</g>
<defs>
<clipPath id="clip0_3_1855">
<rect width="54.0223" height="54.0223" fill="white" transform="translate(0.0917969 0.609375)"/>
</clipPath>
</defs>
</svg>
