<svg width="44" height="43" viewBox="0 0 44 43" fill="none" xmlns="http://www.w3.org/2000/svg">
<path d="M22.0588 42.5983C33.8123 42.5983 43.3403 33.0702 43.3403 21.3168C43.3403 9.56333 33.8123 0.0352783 22.0588 0.0352783C10.3054 0.0352783 0.777344 9.56333 0.777344 21.3168C0.777344 33.0702 10.3054 42.5983 22.0588 42.5983Z" fill="url(#paint0_linear_3_1837)"/>
<path fill-rule="evenodd" clip-rule="evenodd" d="M10.4106 21.0921C16.6146 18.3891 20.7515 16.6071 22.8215 15.7462C28.7316 13.2879 29.9596 12.8609 30.7601 12.8468C30.9361 12.8437 31.3298 12.8874 31.5847 13.0943C31.8 13.269 31.8593 13.505 31.8876 13.6706C31.916 13.8362 31.9513 14.2135 31.9232 14.5084C31.6029 17.8735 30.2171 26.0397 29.5121 29.8087C29.2138 31.4035 28.6264 31.9382 28.0577 31.9905C26.8219 32.1043 25.8834 31.1738 24.6864 30.3892C22.8134 29.1614 21.7552 28.397 19.9371 27.1989C17.836 25.8143 19.198 25.0533 20.3955 23.8096C20.7089 23.4841 26.1541 18.5312 26.2595 18.0819C26.2726 18.0258 26.2849 17.8163 26.1604 17.7057C26.036 17.5951 25.8524 17.6329 25.7198 17.663C25.532 17.7056 22.5397 19.6834 16.7432 23.5962C15.8938 24.1794 15.1245 24.4636 14.4353 24.4487C13.6754 24.4323 12.2137 24.0191 11.1271 23.6659C9.79439 23.2326 8.73514 23.0036 8.82738 22.2678C8.87542 21.8846 9.40316 21.4927 10.4106 21.0921Z" fill="white"/>
<defs>
<linearGradient id="paint0_linear_3_1837" x1="22.0588" y1="0.0352783" x2="22.0588" y2="42.2826" gradientUnits="userSpaceOnUse">
<stop stop-color="#2AABEE"/>
<stop offset="1" stop-color="#229ED9"/>
</linearGradient>
</defs>
</svg>
