<svg width="95" height="92" viewBox="0 0 95 92" fill="none" xmlns="http://www.w3.org/2000/svg">
<path d="M33.9931 61.2881C32.92 61.2376 31.8796 60.8151 31.0761 60.1036L1.93386 32.7044C1.26594 31.9488 0.907525 31.0063 0.928315 30.0602C0.949106 29.1142 1.34762 28.2323 2.04634 27.5861C2.74506 26.9399 3.69403 26.5755 4.70867 26.5639C5.7233 26.5523 6.73106 26.8942 7.53591 27.5232L33.7134 52.1808L85.9486 3.8213C86.7164 3.24635 87.7053 2.97303 88.7228 3.0545C89.7403 3.13598 90.7137 3.56642 91.4536 4.26211C92.1936 4.95779 92.6472 5.86898 92.7262 6.81843C92.8052 7.76788 92.504 8.6877 91.8811 9.39899L36.8434 60.3019C36.0821 60.9596 35.0654 61.3114 33.9931 61.2881Z" fill="#6A4AF9"/>
<path d="M34.1256 91.3086C33.0485 91.2939 32.0158 90.8758 31.2301 90.1364L2.78318 61.5961C2.13514 60.8039 1.80397 59.7982 1.85408 58.7746C1.90419 57.751 2.33199 56.7827 3.05428 56.0581C3.77657 55.3334 4.74169 54.9042 5.76193 54.8539C6.78217 54.8036 7.78458 55.1359 8.57417 55.7861L34.1256 81.4724L88.1241 27.2457C88.9137 26.5956 89.9161 26.2633 90.9363 26.3136C91.9565 26.3638 92.9217 26.793 93.644 27.5177C94.3663 28.2424 94.7941 29.2107 94.8442 30.2343C94.8943 31.2578 94.5631 32.2635 93.9151 33.0557L37.0211 90.1364C36.2355 90.8758 35.2028 91.2939 34.1256 91.3086Z" fill="#6A4AF9"/>
</svg>
