<svg width="151" height="165" viewBox="0 0 151 165" fill="none" xmlns="http://www.w3.org/2000/svg">
<path d="M58.9113 115.252C57.8342 115.237 56.8014 114.826 56.0158 114.098L27.5688 85.9965C26.9208 85.2165 26.5896 84.2263 26.6397 83.2185C26.6898 82.2106 27.1176 81.2572 27.8399 80.5437C28.5622 79.8302 29.5273 79.4076 30.5476 79.3581C31.5678 79.3086 32.5702 79.6358 33.3598 80.2759L58.9113 105.567L112.91 52.1747C113.699 51.5345 114.702 51.2074 115.722 51.2569C116.742 51.3063 117.707 51.729 118.43 52.4425C119.152 53.156 119.58 54.1094 119.63 55.1172C119.68 56.1251 119.349 57.1153 118.701 57.8953L61.8068 114.098C61.0211 114.826 59.9884 115.237 58.9113 115.252Z" fill="#FFD6A3"/>
<path d="M59.9113 87.25C58.8342 87.2355 57.8014 86.8239 57.0158 86.0958L28.5688 57.9946C27.9208 57.2146 27.5896 56.2244 27.6397 55.2165C27.6898 54.2087 28.1176 53.2553 28.8399 52.5418C29.5622 51.8283 30.5273 51.4057 31.5476 51.3562C32.5678 51.3067 33.5702 51.6338 34.3598 52.274L59.9113 77.5651L113.91 24.1727C114.699 23.5325 115.702 23.2054 116.722 23.2549C117.742 23.3044 118.707 23.727 119.43 24.4405C120.152 25.154 120.58 26.1074 120.63 27.1153C120.68 28.1231 120.349 29.1133 119.701 29.8933L62.8068 86.0958C62.0211 86.8239 60.9884 87.2355 59.9113 87.25Z" fill="#FFD6A3"/>
<path d="M61.9113 141.252C60.8342 141.237 59.8014 140.819 59.0158 140.08L30.5688 111.539C29.9208 110.747 29.5896 109.742 29.6397 108.718C29.6898 107.694 30.1176 106.726 30.8399 106.001C31.5622 105.277 32.5273 104.848 33.5476 104.797C34.5678 104.747 35.5702 105.079 36.3598 105.729L61.9113 131.416L115.91 77.1891C116.699 76.5389 117.702 76.2067 118.722 76.2569C119.742 76.3072 120.707 76.7364 121.43 77.4611C122.152 78.1857 122.58 79.154 122.63 80.1776C122.68 81.2012 122.349 82.2069 121.701 82.9991L64.8068 140.08C64.0211 140.819 62.9884 141.237 61.9113 141.252Z" fill="#FFD6A3"/>
</svg>
